<?xml version="1.0" encoding="UTF-8" standalone="no"?>
<!-- Created with Inkscape (http://www.inkscape.org/) -->

<svg
   width="3820"
   height="212"
   viewBox="0 0 1010.7084 56.091671"
   version="1.1"
   id="svg5676"
   inkscape:version="1.1 (c68e22c387, 2021-05-23)"
   sodipodi:docname="fixed.svg"
   xmlns:inkscape="http://www.inkscape.org/namespaces/inkscape"
   xmlns:sodipodi="http://sodipodi.sourceforge.net/DTD/sodipodi-0.dtd"
   xmlns="http://www.w3.org/2000/svg"
   xmlns:svg="http://www.w3.org/2000/svg"
   xmlns:rdf="http://www.w3.org/1999/02/22-rdf-syntax-ns#"
   xmlns:cc="http://creativecommons.org/ns#"
   xmlns:dc="http://purl.org/dc/elements/1.1/">
  <sodipodi:namedview
     id="base"
     pagecolor="#000000"
     bordercolor="#666666"
     borderopacity="1.0"
     inkscape:pageopacity="1"
     inkscape:pageshadow="2"
     inkscape:zoom="1"
     inkscape:cx="-35.5"
     inkscape:cy="-1.5"
     inkscape:document-units="px"
     inkscape:current-layer="layer1"
     showgrid="true"
     units="px"
     objecttolerance="20"
     guidetolerance="20"
     inkscape:pagecheckerboard="false"
     showguides="true"
     inkscape:guide-bbox="true"
     inkscape:window-width="1920"
     inkscape:window-height="1011"
     inkscape:window-x="-9"
     inkscape:window-y="-9"
     inkscape:window-maximized="1"
     inkscape:lockguides="true"
     gridtolerance="1"
     height="220.07291px">
    <inkscape:grid
       originy="-230.16619"
       originx="438.19261"
       id="grid6221"
       type="xygrid" />
    <sodipodi:guide
       inkscape:locked="true"
       id="guide6225"
       orientation="1,0"
       position="254,390.26042" />
    <sodipodi:guide
       inkscape:locked="true"
       id="guide6227"
       orientation="0,1"
       position="-0.19015244,251.35462" />
    <sodipodi:guide
       inkscape:locked="true"
       id="guide6229"
       orientation="0,1"
       position="47.624999,285.75001" />
    <sodipodi:guide
       inkscape:locked="true"
       id="guide6231"
       orientation="0,1"
       position="254,285.75002" />
    <sodipodi:guide
       inkscape:locked="true"
       id="guide5526"
       orientation="1,0"
       position="0.00135101,243.40015" />
    <sodipodi:guide
       inkscape:locked="true"
       id="guide5534"
       orientation="0,1"
       position="0.00135101,230.18959" />
    <sodipodi:guide
       position="5.6017047,248.71042"
       orientation="1,0"
       id="guide4504"
       inkscape:locked="true" />
    <sodipodi:guide
       position="1011.0184,239.45"
       orientation="1,0"
       id="guide4506"
       inkscape:locked="true" />
    <sodipodi:guide
       position="1011.0155,21.613153"
       orientation="0,1"
       id="guide4526"
       inkscape:locked="true" />
  </sodipodi:namedview>
  <defs
     id="defs5670">
    <clipPath
       clipPathUnits="userSpaceOnUse"
       id="clipPath4510">
      <rect
         style="opacity:1;fill:#ffffff;fill-opacity:0.044586;stroke:none;stroke-width:0.79375;stroke-linecap:butt;stroke-linejoin:miter;stroke-miterlimit:4;stroke-dasharray:none;stroke-opacity:0.0286624;paint-order:normal"
         id="rect4512"
         width="1005.4167"
         height="69.756157"
         x="6.1322222"
         y="11.250997"
         ry="4.10339e-07" />
    </clipPath>
    <clipPath
       clipPathUnits="userSpaceOnUse"
       id="clipPath4514">
      <rect
         style="opacity:1;fill:#ffffff;fill-opacity:0.044586;stroke:none;stroke-width:0.79375;stroke-linecap:butt;stroke-linejoin:miter;stroke-miterlimit:4;stroke-dasharray:none;stroke-opacity:0.0286624;paint-order:normal"
         id="rect4516"
         width="1005.4167"
         height="69.756157"
         x="6.1322222"
         y="11.250997"
         ry="4.10339e-07" />
    </clipPath>
    <clipPath
       clipPathUnits="userSpaceOnUse"
       id="clipPath4518">
      <rect
         style="opacity:1;fill:#ffffff;fill-opacity:0.044586;stroke:none;stroke-width:0.79375;stroke-linecap:butt;stroke-linejoin:miter;stroke-miterlimit:4;stroke-dasharray:none;stroke-opacity:0.0286624;paint-order:normal"
         id="rect4520"
         width="1005.4167"
         height="69.756157"
         x="6.1322222"
         y="11.250997"
         ry="4.10339e-07" />
    </clipPath>
    <clipPath
       clipPathUnits="userSpaceOnUse"
       id="clipPath4522">
      <rect
         style="opacity:1;fill:#ffffff;fill-opacity:0.044586;stroke:none;stroke-width:0.79375;stroke-linecap:butt;stroke-linejoin:miter;stroke-miterlimit:4;stroke-dasharray:none;stroke-opacity:0.0286624;paint-order:normal"
         id="rect4524"
         width="1005.4167"
         height="69.756157"
         x="6.1322222"
         y="11.250997"
         ry="4.10339e-07" />
    </clipPath>
  </defs>
  <metadata
     id="metadata5673">
    <rdf:RDF>
      <cc:Work
         rdf:about="">
        <dc:format>image/svg+xml</dc:format>
        <dc:type
           rdf:resource="http://purl.org/dc/dcmitype/StillImage" />
      </cc:Work>
    </rdf:RDF>
  </metadata>
  <g
     transform="translate(-0.53337898,-11.25097)"
     id="layer1"
     inkscape:groupmode="layer"
     inkscape:label="Vrstva 1">
    <path
       sodipodi:nodetypes="sccsccs"
       inkscape:connector-curvature="0"
       id="path6223-3"
       d="M 492.99547,11.249978 C 345.51956,10.789657 141.49567,45.645752 0.53051766,45.645752 l 0.001351,21.16611 c 140.96056134,0 345.00753134,-34.85661 492.47856134,-34.39629 162.42216,0.50699 385.12238,34.395855 523.52007,34.395855 0,-13.950211 0,-21.165035 0,-21.165035 -138.40112,0 -361.10761,-33.889424 -523.53503,-34.396414 z"
       style="fill:none;fill-opacity:0.78344;stroke:#ffffff;stroke-width:0.528319;stroke-miterlimit:4;stroke-dasharray:none;stroke-opacity:0.197452"
       clip-path="url(#clipPath4522)"
       transform="matrix(1.0078494,0,0,0.99539993,-6.4690433,0.45686764)" />
    <path
       sodipodi:nodetypes="ccccccccccc"
       inkscape:connector-curvature="0"
       id="path5540"
       d="M 486.05664,13.253906 C 373.48342,14.447433 261.71045,29.694133 149.63298,39.392739 100.70856,43.684004 49.671053,47.438867 0.53186869,47.638672 c 0,9.695238 0,9.755399 0,17.138834 C 101.40633,63.724257 204.63768,50.598919 305.04815,41.513595 c 82.15422,-7.807545 164.7558,-14.04207 247.31152,-9.65042 141.41525,6.045013 281.87894,25.903556 423.22236,32.111434 12.95817,0.479073 27.95457,0.876563 40.94847,0.898283 0.046,-8.573709 0,-8.410394 0,-17.331622 C 922.42285,46.521579 825.80088,35.819873 732.1272,27.770461 650.261,20.558254 568.286,13.277959 486.05664,13.253906 Z"
       style="fill:none;fill-opacity:0.00392157;stroke:#ffffff;stroke-width:0.264159;stroke-miterlimit:4;stroke-dasharray:none;stroke-opacity:0"
       clip-path="url(#clipPath4518)"
       transform="matrix(1.0078494,0,0,0.99539993,-6.6509444,0.05999261)" />
    <path
       sodipodi:nodetypes="ccccccccccc"
       inkscape:connector-curvature="0"
       id="path4492"
       d="M 486.05664,13.253906 C 373.48342,14.447433 261.71045,29.694133 149.63298,39.392739 100.70856,43.684004 49.671053,47.438867 0.53186869,47.638672 c 0,5.414434 0,12.375282 0,17.138834 C 101.40633,63.724257 204.63768,50.598919 305.04815,41.513595 c 82.15422,-7.807545 164.7558,-14.04207 247.31152,-9.65042 141.41525,6.045013 281.87894,25.903556 423.22236,32.111434 12.95817,0.479073 27.95457,0.876563 40.94847,0.898283 0,-5.488697 0,-13.334912 0,-17.331622 C 922.42283,46.521579 825.80088,35.819873 732.1272,27.770461 650.261,20.558254 568.286,13.277959 486.05664,13.253906 Z"
       style="fill:none;fill-opacity:0.78344;stroke:#ffffff;stroke-width:0.528319;stroke-miterlimit:4;stroke-dasharray:none;stroke-opacity:0"
       clip-path="url(#clipPath4514)"
       transform="matrix(1.0078494,0,0,0.99539993,-6.6509444,0.05999261)" />
    <g
       id="g4758"
       style="fill:#ffffff;fill-opacity:0.0117647;stroke-width:0.998397"
       clip-path="url(#clipPath4510)"
       transform="matrix(1.0078494,0,0,0.99539993,-7.816492,0.39244424)">
      <path
         id="path4744"
         style="opacity:1;fill:#ffffff;fill-opacity:0.0117647;stroke:#ffffff;stroke-width:0.528319;stroke-miterlimit:4;stroke-dasharray:none;stroke-opacity:0"
         d="M 486.05664,13.253906 C 373.48342,14.447433 261.71045,29.694133 149.63298,39.392739 100.70856,43.684004 49.671053,47.438867 0.53186869,47.638672 c 0,1.588243 0,3.309547 0,5.069422 0,4.239665 0,8.703176 0,12.069412 C 3.5352759,64.746147 6.5407724,64.704086 9.5482215,64.651749 107.55099,62.946258 207.62727,50.328415 305.04815,41.513595 369.89051,35.351286 435.01156,30.168901 500.16879,30.417739 c 17.39592,0.06644 34.79442,0.52001 52.19088,1.445436 141.41525,6.045013 281.87894,25.903556 423.22236,32.111434 12.95817,0.479073 27.95457,0.876563 40.94847,0.898283 0,-1.575186 0,-3.344542 0,-5.161353 0,-4.51382 0,-9.320564 0,-12.170269 -2.9689,-0.03217 -5.9402,-0.07397 -8.9139,-0.125027 C 916.32939,45.848994 822.84571,35.565934 732.1272,27.770461 650.261,20.558254 568.286,13.277959 486.05664,13.253906 c 0,0 0,0 0,0"
         inkscape:connector-curvature="0" />
      <path
         id="path4746"
         style="opacity:1;fill:#ffffff;fill-opacity:0.0117647;stroke:#ffffff;stroke-width:0.528319;stroke-miterlimit:4;stroke-dasharray:none;stroke-opacity:0.0329087"
         d="M 487.21311,12.919918 C 376.87961,13.862952 262.9543,29.176685 150.57162,38.974245 100.88185,43.356222 49.827683,47.094138 1.3799096,47.304041 c -0.2842388,1.325181 -0.56700555,2.760434 -0.84826608,4.226996 0,3.533054 6.772e-5,8.313575 1.2888e-4,12.077 2.5028897,0.762953 5.007516,1.447345 7.5137236,1.403731 95.793674,-1.421242 197.115854,-14.036016 295.691624,-23.03983 65.571,-6.235074 131.13949,-11.459186 195.23861,-11.221227 17.30831,0.06414 34.72714,0.510917 52.22566,1.398363 140.7036,5.922864 285.33395,26.109386 423.4917,32.124051 13.18738,0.4979 27.97421,0.88936 40.97391,0.920278 0.29,-1.310944 0.5778,-2.78454 0.8635,-4.298549 0,-4.580757 0,-9.266245 0,-12.178 -2.4741,-1.013837 -4.9502,-1.553042 -7.4283,-1.595586 C 920.51749,45.815227 825.96818,35.584146 733.4349,27.553584 650.92768,20.2491 568.12464,12.978626 487.21311,12.919918 c 0,0 0,0 0,0"
         inkscape:connector-curvature="0" />
      <path
         id="path4748"
         style="opacity:1;fill:#ffffff;fill-opacity:0.0117647;stroke:#ffffff;stroke-width:0.528319;stroke-miterlimit:4;stroke-dasharray:none;stroke-opacity:0.0658174"
         d="M 488.36958,12.58593 C 380.27581,13.27847 264.19814,28.659236 151.51026,38.55575 101.05513,43.02844 49.984313,46.749409 2.2279505,46.96941 c -0.5684776,1.062119 -1.1340111,2.21132 -1.69653215,3.38457 0,2.826443 1.3543e-4,7.923974 2.5776e-4,12.084589 C 2.5340483,63.995834 4.5378045,65.406678 6.5427706,65.371787 100.12735,64.234793 202.69543,51.623088 302.4261,42.430281 368.72572,36.122442 434.74165,30.856602 497.78267,31.083683 c 17.22069,0.06184 34.65987,0.501824 52.26045,1.35129 139.99195,5.800716 288.78896,26.315216 423.76104,32.136669 13.41657,0.516725 27.99384,0.902156 40.99934,0.942272 0.5799,-1.046701 1.1556,-2.224538 1.727,-3.435746 0,-4.647693 0,-9.211926 0,-12.185731 -1.9792,-1.995503 -3.9602,-3.032109 -5.9426,-3.066144 C 924.70559,45.78146 829.09065,35.602357 734.7426,27.336707 651.59435,19.939945 567.96329,12.679294 488.36958,12.58593 c 0,0 0,0 0,0"
         inkscape:connector-curvature="0" />
      <path
         id="path4750"
         style="opacity:1;fill:#ffffff;fill-opacity:0.0117647;stroke:#ffffff;stroke-width:0.528319;stroke-miterlimit:4;stroke-dasharray:none;stroke-opacity:0.0987262"
         d="M 489.52605,12.251942 C 383.672,12.693989 265.44199,28.141788 152.4489,38.137256 101.22842,42.700658 50.140943,46.40468 3.0759914,46.634779 c -0.8527163,0.799057 -1.7010166,1.662207 -2.54479823,2.542144 0,2.119832 2.0316e-4,7.534373 3.8664e-4,12.092177 C 2.0334345,63.620678 3.5363205,65.757974 5.0400451,65.731806 96.415526,64.87906 200.22951,52.270425 301.11507,42.888623 368.14333,36.50802 434.60669,31.200453 496.58961,31.416655 c 17.13308,0.05955 34.59259,0.492731 52.29523,1.304217 139.2803,5.678567 292.24397,26.521047 424.03038,32.149286 13.64578,0.535552 28.01338,0.914953 41.02478,0.964268 0.8699,-0.782459 1.7334,-1.664537 2.5905,-2.572943 0,-4.71463 0,-9.157607 0,-12.193462 -1.4844,-2.977171 -2.9701,-4.511177 -4.457,-4.536703 C 928.89369,45.747693 832.21313,35.620569 736.05029,27.11983 652.26103,19.630791 567.80193,12.379961 489.52605,12.251942 c 0,0 0,0 0,0"
         inkscape:connector-curvature="0" />
      <path
         id="path4752"
         style="opacity:1;fill:#ffffff;fill-opacity:0.0117647;stroke:#ffffff;stroke-width:0.528319;stroke-miterlimit:4;stroke-dasharray:none;stroke-opacity:0.131635"
         d="M 490.68253,11.917954 C 387.0682,12.109508 266.68583,27.62434 153.38754,37.718762 101.4017,42.372876 50.297573,46.059951 3.9240323,46.300148 2.7870772,46.836143 1.6560101,47.413241 0.530968,47.999866 c 0,1.413222 2.7087e-4,7.144772 5.1552e-4,12.099766 C 1.5328207,63.245521 2.5348366,66.10927 3.5373196,66.091824 92.703704,65.523327 197.76359,52.917762 299.80404,43.346966 367.56093,36.893598 434.47173,31.544304 495.39655,31.749628 c 17.04546,0.05725 34.52532,0.483637 52.33001,1.257142 138.56865,5.556419 295.69898,26.726878 424.29972,32.161905 13.87499,0.554378 28.03302,0.927749 41.05032,0.986262 1.1598,-0.518216 2.3111,-1.104536 3.4539,-1.710139 0,-4.781567 0,-9.103288 0,-12.201194 -0.9896,-3.958838 -1.9801,-5.990244 -2.9713,-6.007262 C 933.08179,45.713926 835.3356,35.638781 737.35799,26.902953 652.92771,19.321637 567.64057,12.080628 490.68253,11.917954 c 0,0 0,0 0,0"
         inkscape:connector-curvature="0" />
      <path
         id="path4754"
         style="opacity:1;fill:#ffffff;fill-opacity:0.0117647;stroke:#ffffff;stroke-width:0.528319;stroke-miterlimit:4;stroke-dasharray:none;stroke-opacity:0.164706"
         d="M 491.839,11.583966 C 390.46439,11.525027 267.92968,27.106891 154.32618,37.300268 101.57499,42.045094 50.454203,45.715222 4.7720733,45.965517 c -1.421194,0.272933 -2.8350278,0.56398 -4.24133047,0.857292 0,0.706611 3.3859e-4,6.755171 6.444e-4,12.107354 0.50081967,3.940202 1.00196537,7.530403 1.50320687,7.52168 C 88.991883,66.167595 195.29767,53.565098 298.49302,43.805309 366.97853,37.279176 434.33677,31.888154 494.20349,32.0826 c 16.95785,0.05495 34.45804,0.474544 52.3648,1.210069 137.85699,5.43427 299.15398,26.932708 424.56906,32.174522 14.10418,0.573204 28.05263,0.940546 41.07575,1.008257 1.4497,-0.253973 2.889,-0.544534 4.3174,-0.847336 0,-4.848503 0,-9.048969 0,-12.208924 -0.4948,-4.940506 -0.99,-7.469312 -1.4857,-7.477821 C 937.26989,45.680159 838.45807,35.656993 738.66569,26.686076 653.59439,19.012482 567.47922,11.781296 491.839,11.583966 c 0,0 0,0 0,0"
         inkscape:connector-curvature="0" />
      <path
         id="path4756"
         style="opacity:1;fill:#ffffff;fill-opacity:0.0117647;stroke:#ffffff;stroke-width:0.528319;stroke-miterlimit:4;stroke-dasharray:none;stroke-opacity:0.143312"
         d="M 492.99547,11.249978 C 393.86059,10.940545 269.17352,26.589443 155.26482,36.881773 101.74827,41.717312 50.610833,45.370494 5.6201142,45.630886 c -1.7054328,0.0099 -3.4020333,0.01487 -5.08959654,0.01487 0,0 4.063e-4,6.365571 7.7328e-4,12.114943 3.0219e-4,4.734513 5.7772e-4,9.051167 5.7772e-4,9.051167 84.74819234,0 192.29988134,-12.599427 296.65012134,-22.54821 69.21415,-6.598898 137.01982,-12.031647 195.82844,-11.84808 16.87023,0.05266 34.39076,0.465451 52.39958,1.162996 137.14535,5.312122 302.609,27.138538 424.8384,32.187139 14.33339,0.592031 28.07225,0.953344 41.10119,1.030252 1.7397,0.01027 3.4668,0.01547 5.1809,0.01547 0,-4.91544 0,-8.99465 0,-12.216656 0,-5.922173 0,-8.948379 0,-8.948379 -75.07251,0 -174.94995,-9.971188 -276.55711,-19.177193 -85.71233,-7.765871 -172.65553,-14.987236 -246.97792,-15.219221 0,0 0,0 0,0"
         inkscape:connector-curvature="0" />
    </g>
  </g>
</svg>
