<svg width="3820" height="212" viewBox="0 0 1010.708 56.092" xmlns="http://www.w3.org/2000/svg"><defs><clipPath clipPathUnits="userSpaceOnUse" id="d"><rect width="1005.417" height="69.756" x="6.132" y="11.251" ry="0" fill="#fff" fill-opacity=".045" stroke-width=".794" stroke-opacity=".029"/></clipPath><clipPath clipPathUnits="userSpaceOnUse" id="c"><rect width="1005.417" height="69.756" x="6.132" y="11.251" ry="0" fill="#fff" fill-opacity=".045" stroke-width=".794" stroke-opacity=".029"/></clipPath><clipPath clipPathUnits="userSpaceOnUse" id="b"><rect width="1005.417" height="69.756" x="6.132" y="11.251" ry="0" fill="#fff" fill-opacity=".045" stroke-width=".794" stroke-opacity=".029"/></clipPath><clipPath clipPathUnits="userSpaceOnUse" id="a"><rect width="1005.417" height="69.756" x="6.132" y="11.251" ry="0" fill="#fff" fill-opacity=".045" stroke-width=".794" stroke-opacity=".029"/></clipPath></defs><path d="M492.995 11.25C345.52 10.79 141.495 45.646.531 45.646v21.166c140.961 0 345.008-34.857 492.48-34.396 162.422.507 385.122 34.395 523.52 34.395V45.646c-138.402 0-361.108-33.889-523.536-34.396z" clip-path="url(#a)" transform="matrix(1.00785 0 0 .9954 -7.002 -10.794)" fill="none" stroke="#fff" stroke-width=".528" stroke-opacity=".197"/><path d="M486.057 13.254c-112.574 1.193-224.347 16.44-336.424 26.139-48.924 4.291-99.962 8.046-149.101 8.246v17.139c100.874-1.054 204.106-14.18 304.516-23.264 82.154-7.808 164.756-14.042 247.312-9.65 141.415 6.044 281.879 25.903 423.222 32.11 12.958.48 27.955.877 40.949.899.046-8.574 0-8.41 0-17.332-94.108-1.02-190.73-11.721-284.404-19.77-81.866-7.213-163.841-14.493-246.07-14.517z" clip-path="url(#b)" transform="matrix(1.00785 0 0 .9954 -7.184 -11.191)" fill="none"/><path d="M486.057 13.254c-112.574 1.193-224.347 16.44-336.424 26.139-48.924 4.291-99.962 8.046-149.101 8.246v17.139c100.874-1.054 204.106-14.18 304.516-23.264 82.154-7.808 164.756-14.042 247.312-9.65 141.415 6.044 281.879 25.903 423.222 32.11 12.958.48 27.955.877 40.949.899V47.54c-94.108-1.02-190.73-11.721-284.404-19.77-81.866-7.213-163.841-14.493-246.07-14.517z" clip-path="url(#c)" transform="matrix(1.00785 0 0 .9954 -7.184 -11.191)" fill="none"/><g clip-path="url(#d)" transform="matrix(1.00785 0 0 .9954 -8.35 -10.859)" fill="#fff" fill-opacity=".012" stroke-width=".998"><path d="M486.057 13.254c-112.574 1.193-224.347 16.44-336.424 26.139-48.924 4.291-99.962 8.046-149.101 8.246V64.778c3.003-.032 6.009-.074 9.016-.126 98.003-1.706 198.08-14.324 295.5-23.138 64.843-6.163 129.964-11.345 195.12-11.096 17.397.066 34.795.52 52.192 1.445 141.415 6.045 281.879 25.904 423.222 32.112 12.958.479 27.955.876 40.949.898v-5.161-12.17c-2.97-.033-5.94-.075-8.914-.126-91.288-1.567-184.771-11.85-275.49-19.646-81.866-7.212-163.841-14.492-246.07-14.516"/><path d="M487.213 12.92c-110.333.943-224.259 16.257-336.641 26.054-49.69 4.382-100.744 8.12-149.192 8.33-.284 1.325-.567 2.76-.848 4.227v12.077c2.503.763 5.007 1.447 7.513 1.404 95.794-1.421 197.116-14.036 295.692-23.04 65.571-6.235 131.14-11.46 195.239-11.221 17.308.064 34.727.51 52.225 1.398 140.704 5.923 285.334 26.11 423.492 32.124 13.187.498 27.974.89 40.974.92.29-1.31.578-2.784.864-4.298V48.717c-2.475-1.014-4.95-1.553-7.429-1.596-88.585-1.306-183.134-11.537-275.667-19.567-82.507-7.305-165.31-14.575-246.222-14.634 0 0 0 0 0 0" stroke="#fff" stroke-width=".528" stroke-opacity=".033"/><path d="M488.37 12.586c-108.094.692-224.172 16.073-336.86 25.97-50.455 4.472-101.526 8.193-149.282 8.413a86.653 86.653 0 00-1.697 3.385v12.085c2.003 1.557 4.007 2.968 6.012 2.933 93.584-1.137 196.152-13.749 295.883-22.942 66.3-6.308 132.316-11.573 195.357-11.346 17.22.062 34.66.502 52.26 1.351 139.992 5.8 288.79 26.315 423.761 32.137 13.417.516 27.994.902 41 .942.58-1.047 1.155-2.225 1.727-3.436V49.892c-1.98-1.995-3.96-3.032-5.943-3.066-85.882-1.045-181.497-11.224-275.845-19.49-83.149-7.396-166.78-14.657-246.373-14.75 0 0 0 0 0 0" stroke="#fff" stroke-width=".528" stroke-opacity=".066"/><path d="M489.526 12.252c-105.854.442-224.084 15.89-337.077 25.885-51.22 4.564-102.308 8.268-149.373 8.498-.853.799-1.701 1.662-2.545 2.542v12.092c1.502 2.352 3.005 4.489 4.509 4.463 91.376-.853 195.19-13.462 296.075-22.843C368.143 36.508 434.607 31.2 496.59 31.417c17.133.06 34.592.492 52.295 1.304 139.28 5.678 292.244 26.52 424.03 32.15 13.646.535 28.014.914 41.025.963.87-.782 1.733-1.664 2.59-2.573V51.068c-1.484-2.977-2.97-4.511-4.457-4.537-83.18-.783-179.86-10.91-276.023-19.411-83.789-7.49-168.248-14.74-246.524-14.868 0 0 0 0 0 0" stroke="#fff" stroke-width=".528" stroke-opacity=".099"/><path d="M490.683 11.918c-103.615.192-223.997 15.706-337.295 25.8C101.402 42.374 50.298 46.06 3.924 46.3A94.877 94.877 0 00.531 48v12.1c1.002 3.146 2.004 6.01 3.006 5.992 89.167-.569 194.227-13.174 296.267-22.745 67.757-6.453 134.668-11.803 195.593-11.597 17.045.057 34.525.483 52.33 1.257 138.568 5.556 295.699 26.727 424.3 32.162 13.874.554 28.032.927 41.05.986a57.685 57.685 0 003.453-1.71V52.244c-.99-3.96-1.98-5.99-2.97-6.008-80.478-.522-178.224-10.597-276.202-19.333-84.43-7.581-169.717-14.822-246.675-14.985 0 0 0 0 0 0" stroke="#fff" stroke-width=".528" stroke-opacity=".132"/><path d="M491.839 11.584c-101.375-.059-223.91 15.523-337.513 25.716-52.751 4.745-103.872 8.415-149.554 8.666-1.421.272-2.835.563-4.241.857V58.93c.501 3.94 1.002 7.53 1.504 7.522 86.957-.284 193.263-12.887 296.458-22.647 68.486-6.526 135.844-11.917 195.71-11.722 16.958.055 34.459.474 52.365 1.21 137.857 5.434 299.154 26.932 424.57 32.174 14.104.573 28.052.94 41.075 1.008 1.45-.254 2.89-.544 4.317-.847V53.42c-.494-4.94-.99-7.47-1.485-7.478-77.775-.26-176.587-10.284-276.38-19.255-85.07-7.674-171.186-14.905-246.826-15.102 0 0 0 0 0 0" stroke="#fff" stroke-width=".528" stroke-opacity=".165"/><path d="M492.995 11.25c-99.134-.31-223.821 15.34-337.73 25.632C101.748 41.717 50.61 45.37 5.62 45.63c-1.705.01-3.402.015-5.09.015L.532 57.76v9.05c84.75 0 192.3-12.599 296.651-22.547 69.214-6.6 137.02-12.032 195.828-11.848 16.87.052 34.391.465 52.4 1.163 137.145 5.312 302.609 27.138 424.838 32.187 14.334.592 28.073.953 41.102 1.03 1.74.01 3.466.015 5.18.015V54.595v-8.949c-75.072 0-174.95-9.97-276.557-19.177-85.712-7.766-172.655-14.987-246.978-15.219 0 0 0 0 0 0" stroke="#fff" stroke-width=".528" stroke-opacity=".143"/></g></svg>