<svg width="3821.1" height="210.07" viewBox="0 0 1011 55.582" xmlns="http://www.w3.org/2000/svg"><defs><clipPath id="d"><rect x="6.132" y="11.251" width="1005.4" height="69.756" ry="0" fill="#fff" fill-opacity=".045"/></clipPath><clipPath id="c"><rect x="6.132" y="11.251" width="1005.4" height="69.756" ry="0" fill="#fff" fill-opacity=".045"/></clipPath><clipPath id="b"><rect x="6.132" y="11.251" width="1005.4" height="69.756" ry="0" fill="#fff" fill-opacity=".045"/></clipPath><clipPath id="a"><rect x="6.132" y="11.251" width="1005.4" height="69.756" ry="0" fill="#fff" fill-opacity=".045"/></clipPath></defs><g fill="none"><path transform="matrix(1.0078 0 0 .9954 -7.184 -11.191)" d="M493 11.25C345.52 10.79 141.5 45.646.54 45.646l.001 21.166c140.96 0 345.01-34.857 492.48-34.396 162.42.507 385.12 34.396 523.52 34.396V45.647c-138.4 0-361.11-33.889-523.54-34.396z" clip-path="url(#a)" stroke="#fff" stroke-opacity=".197" stroke-width=".528"/><path transform="matrix(1.0078 0 0 .9954 -7.184 -11.191)" d="M486.06 13.254c-112.57 1.194-224.35 16.44-336.42 26.139-48.924 4.291-99.962 8.046-149.1 8.246v17.139c100.87-1.053 204.11-14.18 304.52-23.264 82.154-7.808 164.76-14.042 247.31-9.65 141.42 6.045 281.88 25.904 423.22 32.11 12.958.48 27.955.877 40.948.899.046-8.574 0-8.41 0-17.332-94.108-1.02-190.73-11.721-284.4-19.771-81.866-7.212-163.84-14.493-246.07-14.517z" clip-path="url(#b)"/><path transform="matrix(1.0078 0 0 .9954 -7.184 -11.191)" d="M486.06 13.254c-112.57 1.194-224.35 16.44-336.42 26.139-48.924 4.291-99.962 8.046-149.1 8.246v17.139c100.87-1.053 204.11-14.18 304.52-23.264 82.154-7.808 164.76-14.042 247.31-9.65 141.42 6.045 281.88 25.904 423.22 32.11 12.958.48 27.955.877 40.948.899V47.54c-94.108-1.02-190.73-11.721-284.4-19.771-81.866-7.212-163.84-14.493-246.07-14.517z" clip-path="url(#c)"/></g><g transform="matrix(1.0078 0 0 .9954 -7.184 -11.191)" clip-path="url(#d)" fill="#fff" fill-opacity=".012" stroke-width=".998"><path d="M486.06 13.254c-112.57 1.194-224.35 16.44-336.42 26.139-48.924 4.291-99.962 8.046-149.1 8.246V64.777c3.003-.031 6.009-.073 9.016-.125 98.003-1.706 198.08-14.323 295.5-23.138 64.842-6.163 129.96-11.345 195.12-11.096 17.396.066 34.794.52 52.191 1.445 141.42 6.045 281.88 25.904 423.22 32.11 12.958.48 27.955.877 40.948.9V47.54c-2.968-.032-5.94-.074-8.913-.125-91.287-1.567-184.77-11.85-275.49-19.646-81.866-7.212-163.84-14.493-246.07-14.517"/><g stroke="#fff" stroke-width=".528"><path d="M487.21 12.92c-110.33.943-224.26 16.257-336.64 26.054-49.69 4.382-100.74 8.12-149.19 8.33-.284 1.325-.567 2.76-.848 4.227v12.077c2.503.763 5.007 1.447 7.514 1.404 95.794-1.422 197.12-14.037 295.69-23.04 65.57-6.236 131.14-11.46 195.24-11.222 17.308.065 34.727.511 52.226 1.399 140.7 5.923 285.33 26.109 423.49 32.124 13.187.498 27.974.89 40.974.92.29-1.31.577-2.784.863-4.298V48.717c-2.474-1.014-4.95-1.553-7.428-1.596-88.585-1.306-183.13-11.537-275.67-19.568-82.507-7.304-165.31-14.575-246.22-14.634" stroke-opacity=".033"/><path d="M488.37 12.586c-108.09.693-224.17 16.073-336.86 25.97C101.055 43.029 49.98 46.75 2.23 46.97a86.574 86.574 0 00-1.697 3.384V62.44c2.003 1.558 4.007 2.968 6.012 2.933 93.585-1.136 196.15-13.748 295.88-22.941 66.3-6.308 132.32-11.574 195.36-11.347 17.22.061 34.66.501 52.26 1.35 139.99 5.802 288.79 26.316 423.76 32.138 13.417.517 27.994.902 40.999.942.58-1.047 1.155-2.224 1.727-3.436V49.892c-1.98-1.995-3.96-3.032-5.943-3.066-85.882-1.045-181.5-11.224-275.85-19.49-83.148-7.397-166.78-14.657-246.37-14.75" stroke-opacity=".066"/><path d="M489.53 12.252c-105.85.442-224.08 15.89-337.08 25.885C101.23 42.7 50.14 46.404 3.08 46.635c-.853.799-1.701 1.662-2.545 2.542v12.092c1.502 2.351 3.005 4.489 4.51 4.462 91.374-.852 195.19-13.46 296.08-22.843 67.027-6.38 133.49-11.688 195.47-11.472 17.132.06 34.592.493 52.294 1.304 139.28 5.68 292.24 26.522 424.03 32.15 13.646.535 28.013.914 41.025.964.87-.783 1.733-1.665 2.59-2.573V51.068c-1.484-2.977-2.97-4.511-4.456-4.537-83.18-.783-179.86-10.91-276.02-19.41-83.79-7.49-168.25-14.74-246.52-14.869" stroke-opacity=".099"/><path d="M490.68 11.918c-103.61.192-224 15.706-337.29 25.801C101.404 42.373 50.3 46.06 3.93 46.3A94.939 94.939 0 00.537 48v12.1c1.002 3.146 2.004 6.01 3.006 5.992 89.166-.568 194.23-13.174 296.27-22.745 67.757-6.453 134.67-11.803 195.59-11.597 17.045.058 34.525.484 52.33 1.257 138.57 5.557 295.7 26.727 424.3 32.162 13.875.555 28.033.928 41.05.987a57.688 57.688 0 003.454-1.71V52.245c-.99-3.96-1.98-5.99-2.971-6.008-80.477-.522-178.22-10.598-276.2-19.333-84.43-7.581-169.72-14.822-246.68-14.985" stroke-opacity=".132"/><path d="M491.84 11.584C390.47 11.525 267.93 27.107 154.33 37.3c-52.751 4.745-103.87 8.415-149.55 8.665-1.421.273-2.835.564-4.241.857V58.93c.501 3.94 1.002 7.53 1.504 7.522 86.957-.284 193.26-12.887 296.46-22.647 68.486-6.526 135.84-11.917 195.71-11.723 16.958.055 34.458.475 52.365 1.21 137.86 5.435 299.15 26.933 424.57 32.175 14.104.573 28.053.94 41.076 1.009 1.45-.254 2.889-.545 4.317-.848V53.418c-.495-4.94-.99-7.47-1.486-7.478-77.775-.26-176.59-10.284-276.38-19.255-85.07-7.673-171.19-14.905-246.83-15.102" stroke-opacity=".165"/><path d="M493 11.25c-99.135-.31-223.82 15.339-337.73 25.632-53.517 4.836-104.65 8.489-149.64 8.75-1.705.009-3.402.014-5.09.014l.001 12.115v9.051c84.749 0 192.3-12.599 296.65-22.548 69.215-6.599 137.02-12.032 195.83-11.848 16.87.053 34.392.466 52.4 1.163 137.15 5.312 302.61 27.14 424.84 32.187 14.334.592 28.073.954 41.102 1.03 1.74.01 3.467.016 5.18.016V45.647c-75.072 0-174.95-9.972-276.56-19.177-85.711-7.766-172.66-14.987-246.98-15.22" stroke-opacity=".143"/></g></g></svg>